<svg width="160" height="41" viewBox="0 0 160 41" fill="none" xmlns="http://www.w3.org/2000/svg">
<path d="M79.0995 28.4114L89.6216 0.474313H85.4314L77.3303 22.0556L70.1604 0.474313H58.1484L68.0653 28.4114H79.0995Z" fill="white"/>
<path d="M104.541 28.4114V16.3638H113.713V28.4114H124.235V0.474313H113.713V12.5219H104.541V0.474313H94.0188V28.4114H104.541Z" fill="white"/>
<path d="M144.264 28.8857C153.39 28.8857 160.001 25.7078 160.001 20.1583C160.001 9.8183 139.888 11.0515 139.888 5.78663C139.888 4.22139 141.378 3.3202 143.799 3.3202C146.266 3.3202 147.989 4.79057 147.989 7.20957C147.989 7.49416 147.989 7.73132 147.942 8.01591H158.79C158.884 7.63645 158.884 7.30443 158.884 6.92498C158.884 3.13047 154.554 0 144.171 0C135.046 0 129.133 2.84588 129.133 8.30049C129.133 17.6919 149.246 16.7433 149.246 22.5299C149.246 24.3323 147.71 25.5655 144.73 25.5655C141.657 25.5655 139.748 24.3797 139.748 21.2493C139.748 20.7275 139.795 20.2058 139.888 19.5892H128.993C128.947 19.9686 128.9 20.3006 128.9 20.6801C128.9 25.5655 133.509 28.8857 144.264 28.8857Z" fill="white"/>
<path fill-rule="evenodd" clip-rule="evenodd" d="M72.4199 40.6261H74.7587V39.8548H72.1468L72.4199 40.6261ZM71.0417 36.734H74.1663V35.9627H70.7685L71.0417 36.734ZM69.7588 33.1112V33.0911H74.6402V32.3198H69.4785L69.7588 33.1112ZM76.4812 40.6261V33.3172L81.2086 40.6261H82.192V32.3198H81.3626V39.4504L76.7537 32.3198H75.6518V40.6261H76.4812ZM85.6383 33.2098C85.7173 33.2889 85.7568 33.4075 85.7568 33.5658V40.6261H86.5862V33.5658C86.5862 33.4075 86.6257 33.2889 86.7047 33.2098C86.7915 33.1307 86.91 33.0911 87.0601 33.0911H89.3231V32.3198H83.0199V33.0911H85.2829C85.4409 33.0911 85.5593 33.1307 85.6383 33.2098ZM90.0917 32.3198H95.8025V33.0911H90.9211V35.9627H95.3286V36.734H90.9211V39.8548H95.921V40.6261H90.0917V32.3198ZM100.534 32.3198H96.8142V40.6261H97.6435V36.9832H101.518C101.644 36.9832 101.735 37.0109 101.79 37.0662C101.854 37.1216 101.889 37.2126 101.897 37.3392L102.217 40.6261H103.058L102.809 37.9799C102.762 37.4499 102.616 37.0544 102.371 36.7933C102.204 36.6099 101.985 36.487 101.714 36.4247C101.881 36.3717 102.037 36.3008 102.181 36.2119C102.434 36.0537 102.632 35.8361 102.774 35.5593C102.924 35.2824 102.999 34.9541 102.999 34.5744C102.999 34.1235 102.892 33.7279 102.679 33.3878C102.474 33.0476 102.185 32.7866 101.814 32.6046C101.443 32.4148 101.016 32.3198 100.534 32.3198ZM101.707 35.7966C101.399 36.0735 100.945 36.2119 100.345 36.2119H97.6435V33.0911H100.416C100.969 33.0911 101.399 33.2256 101.707 33.4946C102.015 33.7635 102.17 34.1432 102.17 34.6337C102.17 35.1321 102.015 35.5197 101.707 35.7966ZM106.098 33.5658C106.098 33.4075 106.058 33.2889 105.979 33.2098C105.9 33.1307 105.782 33.0911 105.624 33.0911H103.361V32.3198H109.664V33.0911H107.401C107.251 33.0911 107.132 33.1307 107.045 33.2098C106.967 33.2889 106.927 33.4075 106.927 33.5658V40.6261H106.098V33.5658ZM112.81 32.3198H111.874L108.533 40.6261H109.433L110.51 37.9206H114.174L115.251 40.6261H116.151L112.81 32.3198ZM113.897 37.1493L112.36 33.2572H112.312L110.786 37.1493H113.897ZM116.981 32.3198H117.811V40.6261H116.981V32.3198ZM120.067 33.3172V40.6261H119.238V32.3198H120.34L124.948 39.4504V32.3198H125.778V40.6261H124.794L120.067 33.3172ZM128.028 32.3198H128.478L131.179 39.5454L133.881 32.3198H134.331H134.71H135.16V40.6261H134.331V33.3382L131.618 40.6261H130.753L128.028 33.3343V40.6261H127.198V32.3198H127.648H128.028ZM142.293 32.3198H136.582V40.6261H142.411V39.8548H137.411V36.734H141.819V35.9627H137.411V33.0911H142.293V32.3198ZM144.134 40.6261V33.3172L148.861 40.6261H149.844V32.3198H149.015V39.4504L144.406 32.3198H143.304V40.6261H144.134ZM153.291 33.2098C153.37 33.2889 153.409 33.4075 153.409 33.5658V40.6261H154.239V33.5658C154.239 33.4075 154.278 33.2889 154.357 33.2098C154.444 33.1307 154.562 33.0911 154.712 33.0911H156.975V32.3198H150.672V33.0911H152.935C153.093 33.0911 153.212 33.1307 153.291 33.2098Z" fill="white"/>
<path fill-rule="evenodd" clip-rule="evenodd" d="M0 40.6264H66.4001L63.4585 32.3202H0V40.6264ZM0 28.4342H62.0838L59.8794 22.2167H0V28.4342ZM0 18.7193H58.7841L57.1313 14.0562H0V18.7193ZM0 10.9474H55.8917L54.7893 7.83866H0V10.9474ZM0 5.11849H53.8264L53.2751 3.56411H0V5.11849ZM0 1.32968H52.4842L52.2097 0.55249H0V1.32968Z" fill="url(#paint0_linear_1485_392)"/>
<defs>
<linearGradient id="paint0_linear_1485_392" x1="8.30001" y1="5.56174" x2="29.7999" y2="53.0284" gradientUnits="userSpaceOnUse">
<stop offset="0.104167" stop-color="#64ADFF"/>
<stop offset="0.363486" stop-color="#94CDDE"/>
<stop offset="0.651987" stop-color="#FAC578"/>
<stop offset="0.986329" stop-color="#F7797D"/>
</linearGradient>
</defs>
</svg>
